# xmcd
#
# Track frame offsets: 
#        187
#        17687
#        36887
#        60042
#        78257
#        97965
#        117297
#        141937
#        160122
#        177220
#
# Disc length: 2886 seconds
#
# Revision: 1
# Processed by: cddbd v1.5.2PL0 Copyright (c) Steve Scherf et al.
# Submitted via: ExactAudioCopy v1.3
#
DISCID=6e0b440a
DTITLE=Jackie Jackson - Be The One
DYEAR=1989
DGENRE=Funk
TTITLE0=Stay
TTITLE1=Be The One
TTITLE2=Fun
TTITLE3=Who's Loving You Now
TTITLE4=Cruzin
TTITLE5=Fine Fine Lady
TTITLE6=Stuck On You
TTITLE7=Don'T Rush It
TTITLE8=Broken Heart
TTITLE9=Stay (12" Remix)
EXTD=YEAR: 1989
EXTT0=
EXTT1=
EXTT2=
EXTT3=
EXTT4=
EXTT5=
EXTT6=
EXTT7=
EXTT8=
EXTT9=
PLAYORDER=
